<svg xmlns="http://www.w3.org/2000/svg" width="1200" height="630" viewBox="0 0 1200 630">
  <rect width="1200" height="630" fill="#FAF9F6"/>
  <!-- contour lines -->
  <g stroke="rgba(15,42,63,0.08)" stroke-width="1.5" fill="none">
    <path d="M-50 140 C 220 70, 460 200, 700 120 S 1150 50, 1280 160"/>
    <path d="M-50 230 C 240 150, 480 280, 720 200 S 1160 130, 1280 240"/>
    <path d="M-50 330 C 260 250, 500 380, 740 300 S 1170 230, 1280 340"/>
    <path d="M-50 440 C 280 360, 520 490, 760 410 S 1180 340, 1280 450"/>
    <path d="M-50 550 C 300 470, 540 600, 780 520 S 1190 450, 1280 560"/>
  </g>
  <!-- compass rose -->
  <g transform="translate(980 200)">
    <circle r="120" stroke="rgba(15,42,63,0.12)" stroke-width="2" fill="none"/>
    <circle r="84" stroke="rgba(15,42,63,0.08)" stroke-width="1.5" fill="none"/>
    <path d="M0 -112 L18 0 L0 -16 L-18 0 Z" fill="#E0A100"/>
    <path d="M0 112 L18 0 L0 16 L-18 0 Z" fill="#14532D"/>
    <path d="M112 0 L0 -18 L16 0 L0 18 Z" fill="rgba(15,42,63,0.4)"/>
    <path d="M-112 0 L0 -18 L-16 0 L0 18 Z" fill="rgba(15,42,63,0.4)"/>
    <circle r="6" fill="#E0A100"/>
  </g>
  <!-- wordmark -->
  <text x="80" y="320" font-family="Georgia, 'Times New Roman', serif" font-size="76" font-weight="600" fill="#0F2A3F">EUDR Navigator</text>
  <text x="82" y="380" font-family="Georgia, serif" font-size="34" fill="#14532D">Find your way through the EU Deforestation Regulation.</text>
  <text x="82" y="470" font-family="sans-serif" font-size="24" fill="#4A5A66">Plain-English EUDR guidance, free tools and templates.</text>
</svg>
